<svg xmlns="http://www.w3.org/2000/svg" viewBox="0 0 1000 379.94"><defs><style>.cls-1{fill:#5051db;}.cls-2{fill:#3887f6;}</style></defs><title>Asset 14</title><g id="Layer_2" data-name="Layer 2"><g id="Layer_1-2" data-name="Layer 1"><path class="cls-1" d="M213.76,319.58V59.26a35.37,35.37,0,1,0-52.13,0V319.58a35.82,35.82,0,1,0,52.13,0Zm-26.06-296a11.79,11.79,0,1,1-11.79,11.79A11.78,11.78,0,0,1,187.7,23.58Zm0,332.48a11.94,11.94,0,1,1,11.93-11.93A11.93,11.93,0,0,1,187.7,356.06Z"/><path class="cls-2" d="M161.61,191.08c0,.51,0,1,0,1.49s0,.82-.08,1.23a1,1,0,0,0,0,.17l-.12,1.24c0,.3-.06.6-.1.9a.43.43,0,0,1,0,.12c0,.18,0,.36-.06.54,0,.35-.09.69-.15,1v0c-.06.39-.13.77-.2,1.16s-.17.94-.26,1.42l-.24,1.09c-.18.79-.39,1.59-.61,2.37l-.12.45c-.1.35-.2.69-.31,1s-.19.6-.29.9c0,0,0,0,0,0-.08.27-.18.53-.26.78l-.29.81L158,209c-.15.39-.31.76-.47,1.15s-.27.62-.41.93-.16.38-.25.57q-1,2.19-2.21,4.27c-.19.33-.39.67-.6,1s-.34.56-.52.85l-.22.34c-.2.31-.4.63-.61.93s-.37.55-.57.82l-.24.33c-.21.3-.42.6-.64.89-.39.52-.79,1-1.2,1.54q-.22.28-.48.57s0,0,0,0c-.45.54-.9,1.06-1.37,1.58l-.24.26-.72.78c-.62.64-1.25,1.27-1.9,1.89l-.58.54c-.37.34-.76.68-1.14,1s-.49.43-.74.63c-.4.34-.79.65-1.19,1s-.66.51-1,.75-.79.59-1.18.86l-.87.6c-.28.2-.57.39-.86.58q-1.09.7-2.22,1.35l-.91.52-.55.3c-.52.28-1.06.55-1.6.82-.21.11-.41.2-.63.3l-.75.36c-.19.08-.37.17-.56.24-.65.3-1.31.57-2,.83-.38.16-.77.3-1.16.44l-1,.35-.51.17-.93.3-1,.3-.09,0-.5.14-.92.25-.7.17-.26.06-.64.15q-.93.21-1.89.39l-.6.1c-.64.12-1.29.21-1.94.3l-.76.1-1,.11-1.1.09-.52,0c-.66.06-1.32.09-2,.1l-.5,0h-2.34l-.5,0c-.67,0-1.33,0-2-.1l-.52,0-1.08-.09-1-.11-.76-.1c-.66-.09-1.3-.18-1.94-.3l-.6-.1q-1-.18-1.89-.39c-.22-.05-.43-.09-.64-.15a2,2,0,0,1-.26-.06l-.7-.17-.92-.25-.5-.14L95,240c-.32-.1-.65-.19-1-.3l-.93-.3-.51-.17-1-.35c-.39-.14-.77-.28-1.16-.44-.67-.26-1.33-.53-2-.83l-.55-.24-.75-.36c-.22-.1-.43-.19-.63-.3-.54-.27-1.08-.54-1.6-.82l-.55-.3-.91-.52q-1.12-.65-2.22-1.35c-.3-.19-.58-.38-.86-.58s-.59-.39-.87-.6-.79-.56-1.18-.86-.66-.49-1-.75-.8-.63-1.19-1-.5-.41-.74-.63-.77-.67-1.15-1c-.18-.19-.38-.36-.57-.54-.65-.62-1.29-1.25-1.9-1.89l-.72-.78-.24-.26c-.47-.52-.93-1-1.38-1.58,0,0,0,0,0,0l-.47-.57c-.42-.51-.81-1-1.2-1.54l-.65-.89-.23-.33c-.2-.27-.38-.55-.57-.82s-.41-.62-.62-.93c-.07-.12-.15-.23-.22-.34-.17-.29-.34-.56-.52-.85l-.59-1q-1.2-2.08-2.21-4.27l-.26-.57-.41-.93c-.15-.39-.31-.76-.45-1.15s-.3-.73-.43-1.1-.2-.54-.28-.81-.19-.51-.27-.78c0,0,0,0,0,0-.1-.3-.21-.6-.29-.9s-.22-.68-.31-1c0-.15-.09-.3-.13-.45-.22-.78-.42-1.58-.6-2.37l-.24-1.09c-.09-.48-.19-.95-.27-1.42s-.13-.77-.19-1.16v0c-.06-.36-.11-.7-.15-1,0-.18,0-.36-.07-.54a.45.45,0,0,1,0-.12c0-.3-.08-.6-.11-.9s-.07-.82-.11-1.24a1,1,0,0,0,0-.17c0-.41-.06-.82-.08-1.23s0-1,0-1.49,0-.8,0-1.2V137.74H5.23v52.14c0,.56,0,1.12,0,1.68s0,1.28,0,1.92l0,1.33c0,.06,0,.12,0,.19s0,.37,0,.56c0,.5,0,1,.09,1.49s.09,1.19.14,1.78.09,1,.13,1.47c.07.7.15,1.41.24,2.12s.13,1.12.21,1.68.15,1.05.23,1.57a1,1,0,0,1,0,.17c.08.5.16,1,.26,1.52.11.77.26,1.53.41,2.29.08.45.17.91.26,1.35s.23,1.13.37,1.7a0,0,0,0,0,0,0c.11.55.24,1.1.37,1.64,0,0,0,0,0,0,.14.56.27,1.12.41,1.67L9,217.83c.15.53.29,1,.44,1.57a1.72,1.72,0,0,1,.07.21c.14.48.29.95.44,1.43s.34,1.09.53,1.64.38,1.17.6,1.76.34,1,.52,1.46.37,1,.56,1.48l0,.12c.21.53.42,1.06.64,1.59.41,1,.85,2,1.3,3.06a1.66,1.66,0,0,0,.06.16c.22.48.44,1,.67,1.45s.49,1.05.74,1.57l.62,1.25c.32.65.66,1.29,1,1.94.2.39.42.79.64,1.18q.42.81.87,1.59l.78,1.35c.08.13.16.27.25.4l.69,1.15c.31.51.63,1,1,1.54s.52.82.79,1.23a.56.56,0,0,1,.05.08c.28.42.55.83.84,1.25.57.86,1.16,1.7,1.77,2.53.19.27.38.53.58.79.56.78,1.16,1.55,1.75,2.32.33.43.66.84,1,1.25s.55.7.84,1,.45.55.68.82c.51.61,1,1.21,1.55,1.8s1.05,1.17,1.58,1.75c.38.41.75.8,1.14,1.2a4.67,4.67,0,0,0,.38.4c.29.3.58.61.89.91l.67.69c.85.83,1.7,1.66,2.57,2.47l1.2,1.1c.3.27.6.54.91.8s.52.46.78.68.48.42.73.63c.89.75,1.8,1.49,2.71,2.22.35.27.69.55,1,.81l.46.36.73.55,1,.75c1.16.86,2.35,1.68,3.55,2.47l.91.61c.27.18.54.36.81.52s.51.33.77.49.5.32.76.48l.87.53,1.59.93c.72.43,1.45.84,2.2,1.24.27.16.56.31.85.46.54.3,1.09.58,1.63.86l1.49.75,1.4.67c.43.21.86.41,1.31.6l1.45.66.11.05,1.45.62.08,0c.46.2.94.39,1.41.58l.2.07c.41.18.85.34,1.27.5l.5.19.88.32c.42.17.85.32,1.28.47h.05c.51.19,1,.37,1.54.53l.26.08,1,.34.8.25,1.07.32.51.16,1.42.4.21,0c.55.16,1.12.31,1.68.45l1.57.4c.52.12,1,.25,1.58.36l1.58.35.94.19,1.29.24c.45.1.91.17,1.38.25l.66.11,1.17.19L94,293c.39.06.78.13,1.18.17l.76.11.56.07,1.38.16c.47.05.94.11,1.41.15s.95.09,1.42.12l1.24.1c.28,0,.57,0,.86.06l1.41.08c.39,0,.79.05,1.19.05,1.36.06,2.73.08,4.12.08s2.75,0,4.12-.08c.4,0,.79,0,1.19-.05l1.4-.08c.29,0,.59,0,.87-.06l1.23-.1c.48,0,1-.07,1.43-.12l1.41-.15,1.38-.16.56-.07.76-.11c.39,0,.79-.11,1.18-.17l.36-.05,1.19-.19.65-.11c.47-.08.92-.15,1.38-.25l1.29-.24.93-.19,1.59-.35c.53-.11,1.06-.24,1.58-.36l1.57-.4,1.68-.45.21,0,1.42-.4.51-.16,1.07-.32.79-.25,1-.34.25-.08c.51-.16,1-.34,1.55-.53h0c.44-.15.86-.3,1.29-.47l.88-.32.49-.19c.44-.16.86-.32,1.28-.5l.2-.07,1.41-.58.08,0,1.45-.62.1-.05,1.47-.66c.43-.19.87-.39,1.3-.6l1.4-.67,1.49-.75c.55-.28,1.08-.56,1.63-.86l.85-.46c.74-.4,1.48-.81,2.2-1.24V189.88C161.63,190.29,161.63,190.68,161.61,191.08Z"/><rect class="cls-1" y="59.54" width="62.56" height="62.56" transform="translate(122.1 59.54) rotate(90)"/><path class="cls-1" d="M334.62,103.2v85.7q0,18.07,8.84,26.82T368,224.47q15.56,0,24.39-8.75t8.84-26.82V103.2H419v85.51q0,16.9-6.8,28.47a42.74,42.74,0,0,1-18.37,17.2,62.57,62.57,0,0,1-51.88,0,42.13,42.13,0,0,1-18.27-17.2q-6.7-11.56-6.7-28.47V103.2Z"/><path class="cls-1" d="M481.82,136.53q10.4-6.12,24.2-6.12a49.91,49.91,0,0,1,25.75,6.8,48.11,48.11,0,0,1,18.17,19.14q6.6,12.35,6.6,28.67,0,16.13-6.6,28.76A48.47,48.47,0,0,1,506,240.4a46.42,46.42,0,0,1-24-6.12A43.65,43.65,0,0,1,466.18,219v70.16H448.5v-157h17.68v19.63A42.18,42.18,0,0,1,481.82,136.53ZM533.61,164a33.64,33.64,0,0,0-13.12-13.61,36.38,36.38,0,0,0-18.17-4.66,35.37,35.37,0,0,0-18,4.76,34.91,34.91,0,0,0-13.22,13.8,42.78,42.78,0,0,0-4.95,20.89,43.25,43.25,0,0,0,4.95,21.09,34.82,34.82,0,0,0,13.22,13.79,35.27,35.27,0,0,0,18,4.76,35.65,35.65,0,0,0,18.17-4.76,34.13,34.13,0,0,0,13.12-13.79q4.86-9,4.86-21.28Q538.47,173,533.61,164Z"/><path class="cls-1" d="M601.43,146.73V209.5q0,7.77,3.31,11t11.46,3.21h13v15H613.29q-14.77,0-22.16-6.8t-7.38-22.35V146.73H570V132.16h13.8V105.34h17.68v26.82h27.79v14.57Z"/><path class="cls-1" d="M651.18,111.36a12,12,0,0,1,8.55-20.59A11.09,11.09,0,0,1,668,94.26a12.45,12.45,0,0,1,0,17.1,11.07,11.07,0,0,1-8.26,3.5A11.59,11.59,0,0,1,651.18,111.36Zm17.1,20.8V238.65H650.6V132.16Z"/><path class="cls-1" d="M848.62,135.36A37.29,37.29,0,0,1,864,150.81q5.63,10.31,5.63,25.07v62.77H852.11V178.41q0-15.93-7.87-24.39T823,145.57q-13.82,0-22,8.84T792.84,180v58.69H775.35V178.41q0-15.93-7.87-24.39t-21.28-8.45q-13.8,0-22,8.84T716.08,180v58.69H698.4V132.16h17.68v15.35a35.08,35.08,0,0,1,14.09-12.83,42.82,42.82,0,0,1,19.53-4.46,46.06,46.06,0,0,1,23.71,6,36.77,36.77,0,0,1,15.35,17.68,35,35,0,0,1,14.77-17.49,43.56,43.56,0,0,1,22.93-6.21A46.65,46.65,0,0,1,848.62,135.36Z"/><path class="cls-1" d="M898.56,156.35a48,48,0,0,1,18.17-19.14,49.88,49.88,0,0,1,25.75-6.8q14,0,24.29,6a40.21,40.21,0,0,1,15.35,15.16V132.16H1000V238.65H982.12V218.83a41.66,41.66,0,0,1-15.64,15.45q-10.4,6.12-24.2,6.12a48.23,48.23,0,0,1-25.65-7,49,49,0,0,1-18.07-19.62Q891.95,201.15,892,185,892,168.69,898.56,156.35Zm78.7,7.87a34.44,34.44,0,0,0-13.11-13.7,37.23,37.23,0,0,0-36.25-.1,33.87,33.87,0,0,0-13,13.61Q910,173,910,185q0,12.24,4.86,21.28a34.36,34.36,0,0,0,13,13.79A35.2,35.2,0,0,0,946,224.85a35.71,35.71,0,0,0,18.17-4.76,34.17,34.17,0,0,0,13.11-13.79,43.9,43.9,0,0,0,4.86-21.09Q982.12,173.17,977.26,164.22Z"/></g></g></svg>